<?xml version="1.0" encoding="UTF-8"?>
<svg width="316px" height="40px" viewBox="0 0 316 40" version="1.1" xmlns="http://www.w3.org/2000/svg" xmlns:xlink="http://www.w3.org/1999/xlink">
    <title>LASS_yu_DIGITAL_hor_RGB</title>
    <defs>
        <polygon points="0 0.0619753086 44.9701143 0.0619753086 44.9701143 6.77407407 0 6.77407407"></polygon>
        <polygon points="0.0698817547 0 12.0821034 0 12.0821034 39.9851852 0.0698817547 39.9851852"></polygon>
    </defs>
    <g stroke="none" stroke-width="1" fill="none" fill-rule="evenodd">
        <g transform="translate(-195.000000, -103.000000)">
            <g transform="translate(-0.000000, 0.000000)">
                <g transform="translate(0.000000, 60.000000)">
                    <g transform="translate(195.000000, 43.000000)">
                        <path d="M5.04049383,29.3222222 C4.78716049,29.3222222 4.59555556,29.251358 4.49654321,29.1185185 C4.42848341,29.0261728 4.41061728,28.9106173 4.44666667,28.7945679 C4.55654321,28.4503704 5.07802469,28.1953086 5.51037037,28.1298765 C15.7824691,26.6044444 24.7632099,25.8669136 32.962963,25.8669136 C36.8093827,25.8669136 40.5538272,26.0330864 44.085679,26.3617284 C44.9953086,26.4535802 45.0577778,26.608642 45.0787654,26.6706173 C45.0995062,26.7254321 45.0897264,26.8004938 45.0577778,26.8506173 C45.0022222,26.9283951 44.9103704,26.9716049 44.5725926,26.9716049 C44.4474074,26.9716049 44.2958025,26.9666667 44.1316049,26.9520988 C41.108642,26.7039506 37.9301235,26.5795062 34.6844444,26.5795062 C25.9464198,26.5795062 16.3397531,27.4679012 5.31432099,29.297284 C5.21703704,29.3167901 5.12518519,29.3222222 5.04049383,29.3222222" fill="#8A335A"></path>
                        <path d="M3.2437037,31.4560494 C2.99481481,31.4560494 2.81283951,31.385679 2.7182716,31.2565432 C2.65283951,31.162716 2.63481481,31.0471605 2.67382716,30.9296296 C2.78641975,30.5925926 3.31209877,30.3249383 3.75135802,30.2483951 C15.1355556,28.3461728 25.0632099,27.4249383 34.1101235,27.4249383 C37.2,27.4249383 40.2355556,27.5340741 43.1318519,27.7508642 C44.0745679,27.8261728 44.1219753,27.9824691 44.145679,28.057037 C44.1637037,28.1111111 44.1496296,28.1834568 44.1162963,28.2306173 C44.0595062,28.3120988 43.9535802,28.3565432 43.5701235,28.3565432 C43.4530864,28.3565432 43.3212346,28.3518519 43.1780247,28.3432099 C40.7720988,28.1888889 38.2693827,28.1125926 35.734321,28.1125926 C26.1592593,28.1125926 15.6306173,29.194321 3.55111111,31.4246914 C3.44123457,31.4449383 3.33703704,31.4560494 3.2437037,31.4560494" fill="#BA3335"></path>
                        <g transform="translate(0.000000, 28.888889)">
                            <mask fill="white">
                                <use xlink:href="#path-1"></use>
                            </mask>
                            <g></g>
                            <path d="M3.19234568,4.42814815 C2.94222222,4.42814815 2.76,4.36148148 2.66271605,4.23580247 C2.59728395,4.14814815 2.5762963,4.03753086 2.60691358,3.92419753 C2.70296296,3.58641975 3.23111111,3.31654321 3.67901235,3.23580247 C15.7308642,1.1 26.2649383,0.0619753086 35.888642,0.0619753086 C38.6237037,0.0619753086 41.3271605,0.148395062 43.9162963,0.317283951 C44.8632099,0.384197531 44.9271605,0.533333333 44.9562963,0.596049383 C44.9797531,0.652345679 44.9730864,0.730123457 44.9382716,0.781728395 C44.8923457,0.856049383 44.8130864,0.91654321 44.3528395,0.91654321 C44.242963,0.91654321 44.1162963,0.911111111 43.982716,0.903950617 C41.8693827,0.787901235 39.6750617,0.727407407 37.4641975,0.727407407 C27.3367901,0.727407407 16.237037,1.92814815 3.53012346,4.39358025 C3.41061728,4.41777778 3.29802469,4.42814815 3.19234568,4.42814815" fill="#1F2E4F" mask="url(#mask-2)"></path>
                            <path d="M0.569876543,6.77407407 C0.332098765,6.77407407 0.158271605,6.70864198 0.0649382716,6.58419753 C0.000987654321,6.49728395 -0.017037037,6.38617284 0.0165432099,6.27283951 C0.11654321,5.93555556 0.654814815,5.65061728 1.10938272,5.55604938 C14.4792593,2.87160494 26.1619753,1.56740741 36.8244444,1.56740741 C38.605679,1.56740741 40.3814815,1.60296296 42.1044444,1.67802469 C43.0832099,1.7237037 43.1387654,1.87679012 43.1669136,1.94814815 C43.1849383,2.00320988 43.1780247,2.08049383 43.1459259,2.12790123 C43.102716,2.18888889 43.0444444,2.27382716 42.4323457,2.27382716 C42.3503704,2.27382716 42.2614815,2.27111111 42.1698765,2.26814815 C40.905679,2.22567901 39.6069136,2.20765432 38.3111111,2.20765432 C27.1701235,2.20765432 14.9466667,3.68641975 0.942469136,6.72814815 C0.81037037,6.75802469 0.686666667,6.77407407 0.569876543,6.77407407" fill="#37908B" mask="url(#mask-2)"></path>
                        </g>
                        <path d="M1.32641975,37.3098765 C1.08444444,37.3098765 0.907654321,37.2432099 0.815802469,37.1217284 C0.751851852,37.0360494 0.735308642,36.9291358 0.764444444,36.8192593 C0.86345679,36.4785185 1.40419753,36.1901235 1.86864198,36.0975309 C15.5083951,33.3434568 27.4580247,32.0032099 38.3985185,32.0032099 C40.1965432,32.0032099 41.9888889,32.0441975 43.725679,32.1123457 C44.7185185,32.1609877 44.7767901,32.3091358 44.8074074,32.3807407 C44.8283951,32.4350617 44.82,32.5120988 44.7866667,32.562963 C44.7461728,32.6261728 44.6893827,32.7066667 44.0622222,32.7066667 C43.9802469,32.7066667 43.8911111,32.7059259 43.7965432,32.7004938 C42.5116049,32.6602469 41.1893827,32.6358025 39.8711111,32.6358025 C28.4575309,32.6358025 15.9740741,34.1528395 1.71432099,37.262716 C1.57802469,37.2940741 1.44592593,37.3098765 1.32641975,37.3098765"  fill="#F8C924"></path>
                        <g transform="translate(4.197531, 0.000000)">
                            <mask fill="white">
                                <use xlink:href="#path-3"></use>
                            </mask>
                            <g></g>
                            <path d="M0.499506173,39.1933333 C0.378518519,39.1933333 0.269876543,39.1377778 0.192098765,39.0419753 C0.0669135802,38.8841975 0.0348148148,38.6150617 0.110123457,38.3061728 C2.43901235,28.3259259 6.20222222,11.1790123 8.21555556,2.44222222 C8.42271605,1.52888889 8.58962963,1.52888889 8.68,1.52666667 C8.73432099,1.52666667 8.80222222,1.55876543 8.83580247,1.60123457 C8.86765432,1.64074074 8.96493827,1.7617284 8.80518519,2.51530864 C6.86518519,11.5980247 3.26666667,28.9266667 1.36839506,38.1518519 C1.2654321,38.6560494 0.940246914,39.0948148 0.613333333,39.1795062 C0.574567901,39.188642 0.535555556,39.1933333 0.499506173,39.1933333" fill="#F8C924" mask="url(#mask-4)"></path>
                            <path d="M2.33753086,40 C2.21530864,40 2.10123457,39.9444444 2.02345679,39.8469136 C1.89530864,39.6898765 1.86074074,39.4276543 1.92197531,39.1251852 C3.91037037,29.9585185 7.45358025,12.6632099 9.38222222,3.63333333 C9.57679012,2.72740741 9.7437037,2.72617284 9.83407407,2.72617284 C9.83407407,2.72617284 9.83407407,2.72617284 9.83530864,2.72617284 C9.88814815,2.72617284 9.95506173,2.75876543 9.98839506,2.80049383 C10.022963,2.84 10.1234568,2.9617284 9.97580247,3.69876543 C8.26271605,12.4498765 4.9491358,29.6706173 3.20123457,38.9646914 C3.1108642,39.4535802 2.78123457,39.9019753 2.45308642,39.9839506 C2.41407407,39.9923457 2.37530864,40 2.33753086,40" fill="#37908B" mask="url(#mask-4)"></path>
                            <path d="M4.97950617,36.8679012 C4.85876543,36.8679012 4.74888889,36.8150617 4.66691358,36.7162963 C4.53777778,36.557037 4.49703704,36.2950617 4.5582716,35.9923457 C6.33950617,27.0301235 9.67407407,9.86567901 11.4291358,0.896296296 C11.605679,0 11.7683951,0 11.8614815,0 C11.917037,0 11.9824691,0.0318518519 12.0158025,0.072345679 C12.0491358,0.111851852 12.1466667,0.232345679 12.0158025,0.963703704 C10.4390123,9.80790123 7.32962963,26.9034568 5.80839506,35.8612346 C5.72493827,36.3518519 5.41209877,36.7787654 5.08246914,36.8548148 C5.04790123,36.8637037 5.01308642,36.8679012 4.97950617,36.8679012"  fill="#1F2E4F" mask="url(#mask-4)"></path>
                        </g>
                        <path d="M10.9195062,38.4308642 C10.7918519,38.4308642 10.6748148,38.3745679 10.5898765,38.2735802 C10.4607407,38.1192593 10.4175309,37.862716 10.4691358,37.5728395 C11.9664198,29.2883951 15.0118519,12.5646914 16.7291358,2.92 C16.8849383,2.02740741 17.0575309,2.02740741 17.1503704,2.02740741 C17.2032099,2.02740741 17.268642,2.06074074 17.3022222,2.1017284 C17.3911111,2.20592593 17.3980247,2.50419753 17.3202469,2.97925926 C15.9575309,11.5558025 13.097284,28.4595062 11.745679,37.4261728 C11.6733333,37.9064198 11.3562963,38.3419753 11.0239506,38.4190123 C10.9876543,38.4266667 10.954321,38.4308642 10.9195062,38.4308642" fill="#BA3335"></path>
                        <path d="M13.1960494,37.0165432 C13.0679012,37.0165432 12.9525926,36.9602469 12.8664198,36.8614815 C12.7328395,36.702963 12.6841975,36.4498765 12.731358,36.1641975 C14.0009877,28.3133333 16.7864198,11.8846914 18.3851852,1.81802469 C18.5214815,0.938024691 18.6871605,0.938024691 18.785679,0.938024691 C18.8385185,0.938024691 18.9069136,0.971111111 18.94,1.01234568 C19.0276543,1.11876543 19.0375309,1.41135802 18.9693827,1.87703704 C17.7414815,10.7076543 15.1024691,27.5604938 13.9967901,36.0279012 C13.937037,36.5069136 13.6239506,36.9367901 13.2930864,37.0076543 C13.2612346,37.0130864 13.2279012,37.0165432 13.1960494,37.0165432" fill="#8A335A"></path>
                        <polyline fill="#0A0B09" points="28.8903704 5.93308642 31.3320988 5.93308642 31.3320988 17.4412346 37.1639506 17.4412346 37.1639506 19.6498765 28.8903704 19.6498765 28.8903704 5.93308642"></polyline>
                        <path d="M47.9740741,14.4192593 L45.8624691,8.83925926 L43.7123457,14.4192593 L47.9740741,14.4192593 Z M44.874321,5.93308642 L46.9866667,5.93308642 L52.8958025,19.6498765 L50.1051852,19.6498765 L48.8269136,16.5111111 L42.8787654,16.5111111 L41.6387654,19.6498765 L38.9069136,19.6498765 L44.874321,5.93308642 L44.874321,5.93308642 Z" fill="#0A0B09"></path>
                        <path d="M62.0965432,8.87753086 C61.5738272,8.14123457 60.6437037,7.79308642 59.6945679,7.79308642 C58.5708642,7.79308642 57.4474074,8.29654321 57.4474074,9.55580247 C57.4474074,12.3074074 63.9565432,10.7375309 63.9565432,15.6202469 C63.9565432,18.5654321 61.6318519,19.9990123 58.9382716,19.9990123 C57.2335802,19.9990123 55.5671605,19.4755556 54.4437037,18.1392593 L56.2846914,16.3565432 C56.8854321,17.2671605 57.9116049,17.7901235 58.9965432,17.7901235 C60.1209877,17.7901235 61.3997531,17.1701235 61.3997531,15.9111111 C61.3997531,12.9074074 54.8891358,14.6320988 54.8891358,9.73037037 C54.8891358,6.90148148 57.4081481,5.58419753 59.9464198,5.58419753 C61.38,5.58419753 62.8135802,5.99111111 63.8797531,6.99851852 L62.0965432,8.87753086" fill="#0A0B09"></path>
                        <path d="M73.9338272,8.87753086 C73.4111111,8.14123457 72.4802469,7.79308642 71.531358,7.79308642 C70.4076543,7.79308642 69.2839506,8.29654321 69.2839506,9.55580247 C69.2839506,12.3074074 75.7938272,10.7375309 75.7938272,15.6202469 C75.7938272,18.5654321 73.4691358,19.9990123 70.7758025,19.9990123 C69.0711111,19.9990123 67.4049383,19.4755556 66.2804938,18.1392593 L68.1219753,16.3565432 C68.7222222,17.2671605 69.7493827,17.7901235 70.8338272,17.7901235 C71.9575309,17.7901235 73.2365432,17.1701235 73.2365432,15.9111111 C73.2365432,12.9074074 66.7266667,14.6320988 66.7266667,9.73037037 C66.7266667,6.90148148 69.245679,5.58419753 71.7837037,5.58419753 C73.2167901,5.58419753 74.6508642,5.99111111 75.7165432,6.99851852 L73.9338272,8.87753086" fill="#0A0B09"></path>
                        <path d="M85.1896296,17.7901235 C88.0377778,17.7901235 89.917037,15.6202469 89.917037,12.6948148 C89.917037,9.96296296 88.0377778,7.79308642 85.1896296,7.79308642 C82.3607407,7.79308642 80.4814815,9.96296296 80.4814815,12.6948148 C80.4814815,15.6202469 82.3607407,17.7901235 85.1896296,17.7901235 Z M85.1698765,5.58419753 C89.4523457,5.50666667 92.4750617,8.37382716 92.4750617,12.7720988 C92.4750617,17.0538272 89.4523457,19.9209877 85.1698765,19.9990123 C80.9461728,19.9990123 77.9239506,17.1311111 77.9239506,12.8493827 C77.9239506,8.45135802 80.9461728,5.58419753 85.1698765,5.58419753 L85.1698765,5.58419753 Z" fill="#0A0B09"></path>
                        <polyline fill="#0A0B09" points="94.74 5.93308642 97.9753086 5.93308642 104.620741 16.1239506 104.66 16.162716 104.620741 16.162716 104.66 16.1239506 104.66 5.93308642 107.100741 5.93308642 107.100741 19.6498765 104.000988 19.6498765 97.22 9.12938272 97.1809877 9.12938272 97.1809877 19.6498765 94.74 19.6498765 94.74 5.93308642"></polyline>
                        <path d="M115.140247,17.4412346 C118.201235,17.4412346 120.700988,16.1239506 120.700988,12.7911111 C120.700988,9.45925926 118.53037,8.14123457 115.546667,8.14123457 L113.319259,8.14123457 L113.319259,17.4412346 L115.140247,17.4412346 Z M110.877531,5.93308642 L116.28321,5.93308642 C119.886914,5.93308642 123.258519,8.14123457 123.258519,12.7911111 C123.258519,17.48 119.286667,19.6498765 115.992346,19.6498765 L110.877531,19.6498765 L110.877531,5.93308642 L110.877531,5.93308642 Z" fill="#0A0B09"></path>
                        <polyline fill="#0A0B09" points="125.523457 5.93308642 134.610617 5.93308642 134.610617 8.14123457 127.965185 8.14123457 127.965185 11.5128395 134.261481 11.5128395 134.261481 13.7212346 127.965185 13.7212346 127.965185 17.4412346 134.959506 17.4412346 134.959506 19.6498765 125.523457 19.6498765 125.523457 5.93308642"></polyline>
                        <path d="M50.8634568,29.6451852 C51.0666667,29.9550617 51.4182716,30.0980247 51.7582716,30.0980247 C52.1338272,30.0980247 52.5990123,29.86 52.5990123,29.394321 C52.5990123,28.4222222 50.5180247,29.0249383 50.5180247,27.3782716 C50.5180247,26.8837037 50.9353086,26.1975309 51.9491358,26.1975309 C52.4079012,26.1975309 52.8498765,26.2933333 53.1654321,26.6804938 L52.7,27.1039506 C52.557284,26.8837037 52.2767901,26.7345679 51.9491358,26.7345679 C51.317037,26.7345679 51.1254321,27.1162963 51.1254321,27.3782716 C51.1254321,28.4459259 53.2071605,27.8079012 53.2071605,29.3293827 C53.2071605,30.1461728 52.5516049,30.6353086 51.7402469,30.6353086 C51.197284,30.6353086 50.6787654,30.4506173 50.3918519,30.0501235 L50.8634568,29.6451852" fill="#0A0B09"></path>
                        <path d="M57.2901235,27.2175309 C57.051358,26.9076543 56.6580247,26.7345679 56.2701235,26.7345679 C55.3212346,26.7345679 54.6953086,27.4918519 54.6953086,28.4523457 C54.6953086,29.3409877 55.285679,30.0980247 56.2701235,30.0980247 C56.7530864,30.0980247 57.1232099,29.8832099 57.3735802,29.5316049 L57.8565432,29.8955556 C57.731358,30.0688889 57.2244444,30.6353086 56.2577778,30.6353086 C54.9162963,30.6353086 54.0871605,29.5140741 54.0871605,28.4523457 C54.0871605,27.1402469 54.9874074,26.1975309 56.2879012,26.1975309 C56.842716,26.1975309 57.4276543,26.4061728 57.7669136,26.8535802 L57.2901235,27.2175309" fill="#0A0B09"></path>
                        <polyline fill="#0A0B09" points="58.8432099 26.3049383 59.4150617 26.3049383 59.4150617 28.0582716 61.6044444 28.0582716 61.6044444 26.3049383 62.1767901 26.3049383 62.1767901 30.5279012 61.6044444 30.5279012 61.6044444 28.5953086 59.4150617 28.5953086 59.4150617 30.5279012 58.8432099 30.5279012 58.8432099 26.3049383"></polyline>
                        <path d="M67.0876543,28.4167901 C67.0876543,27.4918519 66.4609877,26.7345679 65.4948148,26.7345679 C64.5288889,26.7345679 63.9022222,27.4918519 63.9022222,28.4167901 C63.9022222,29.3409877 64.5288889,30.0980247 65.4948148,30.0980247 C66.4609877,30.0980247 67.0876543,29.3409877 67.0876543,28.4167901 Z M63.2940741,28.4167901 C63.2940741,27.1641975 64.2069136,26.1975309 65.4948148,26.1975309 C66.782963,26.1975309 67.6958025,27.1641975 67.6958025,28.4167901 C67.6958025,29.668642 66.782963,30.6353086 65.4948148,30.6353086 C64.2069136,30.6353086 63.2940741,29.668642 63.2940741,28.4167901 L63.2940741,28.4167901 Z" fill="#0A0B09"></path>
                        <path d="M72.3437037,28.4167901 C72.3437037,27.4918519 71.717037,26.7345679 70.7511111,26.7345679 C69.7849383,26.7345679 69.1582716,27.4918519 69.1582716,28.4167901 C69.1582716,29.3409877 69.7849383,30.0980247 70.7511111,30.0980247 C71.717037,30.0980247 72.3437037,29.3409877 72.3437037,28.4167901 Z M68.5501235,28.4167901 C68.5501235,27.1641975 69.462963,26.1975309 70.7511111,26.1975309 C72.0390123,26.1975309 72.9518519,27.1641975 72.9518519,28.4167901 C72.9518519,29.668642 72.0390123,30.6353086 70.7511111,30.6353086 C69.462963,30.6353086 68.5501235,29.668642 68.5501235,28.4167901 L68.5501235,28.4167901 Z" fill="#0A0B09"></path>
                        <polyline fill="#0A0B09" points="74.0691358 26.3049383 74.6407407 26.3049383 74.6407407 29.9908642 76.5795062 29.9908642 76.5795062 30.5279012 74.0691358 30.5279012 74.0691358 26.3049383"></polyline>
                        <path d="M83.6602469,28.4167901 C83.6602469,27.4918519 83.034321,26.7345679 82.0676543,26.7345679 C81.1009877,26.7345679 80.4748148,27.4918519 80.4748148,28.4167901 C80.4748148,29.3409877 81.1009877,30.0980247 82.0676543,30.0980247 C83.034321,30.0980247 83.6602469,29.3409877 83.6602469,28.4167901 Z M79.8666667,28.4167901 C79.8666667,27.1641975 80.7795062,26.1975309 82.0676543,26.1975309 C83.3555556,26.1975309 84.2681481,27.1641975 84.2681481,28.4167901 C84.2681481,29.668642 83.3555556,30.6353086 82.0676543,30.6353086 C80.7795062,30.6353086 79.8666667,29.668642 79.8666667,28.4167901 L79.8666667,28.4167901 Z" fill="#0A0B09"></path>
                        <polyline fill="#0A0B09" points="85.3846914 26.3049383 88.0390123 26.3049383 88.0390123 26.8419753 85.9580247 26.8419753 85.9580247 28.165679 87.8960494 28.165679 87.8960494 28.7024691 85.9580247 28.7024691 85.9580247 30.5279012 85.3846914 30.5279012 85.3846914 26.3049383"></polyline>
                        <polyline fill="#0A0B09" points="91.5355556 26.3049383 94.2609877 26.3049383 94.2609877 26.8419753 92.1076543 26.8419753 92.1076543 28.1 94.1120988 28.1 94.1120988 28.6367901 92.1076543 28.6367901 92.1076543 29.9908642 94.3683951 29.9908642 94.3683951 30.5279012 91.5355556 30.5279012 91.5355556 26.3049383"></polyline>
                        <polyline fill="#0A0B09" points="95.4740741 26.3049383 96.2259259 26.3049383 98.5518519 29.7760494 98.5634568 29.7760494 98.5634568 26.3049383 99.1360494 26.3049383 99.1360494 30.5279012 98.4081481 30.5279012 96.0592593 27.0567901 96.0469136 27.0567901 96.0469136 30.5279012 95.4740741 30.5279012 95.4740741 26.3049383"></polyline>
                        <path d="M104.112593,28.165679 L104.112593,30.2471605 C103.700741,30.4975309 103.026914,30.6353086 102.51358,30.6353086 C101.081975,30.6353086 100.25358,29.6153086 100.25358,28.4167901 C100.25358,27.1641975 101.166173,26.1975309 102.454321,26.1975309 C103.230123,26.1975309 103.700741,26.4061728 104.029136,26.7461728 L103.62321,27.1819753 C103.277284,26.8481481 102.877778,26.7345679 102.454321,26.7345679 C101.488395,26.7345679 100.861728,27.4918519 100.861728,28.4167901 C100.861728,29.3711111 101.571852,30.0980247 102.501975,30.0980247 C102.901481,30.0980247 103.28321,30.0209877 103.539753,29.8780247 L103.539753,28.7024691 L102.60321,28.7024691 L102.60321,28.165679 L104.112593,28.165679" fill="#0A0B09"></path>
                        <polygon fill="#0A0B09" points="105.450123 30.5279012 106.022716 30.5279012 106.022716 26.3049383 105.450123 26.3049383"></polygon>
                        <polyline fill="#0A0B09" points="107.404444 26.3049383 108.156296 26.3049383 110.482963 29.7760494 110.493827 29.7760494 110.493827 26.3049383 111.06716 26.3049383 111.06716 30.5279012 110.339259 30.5279012 107.989136 27.0567901 107.977531 27.0567901 107.977531 30.5279012 107.404444 30.5279012 107.404444 26.3049383"></polyline>
                        <polyline fill="#0A0B09" points="112.44642 26.3049383 115.171852 26.3049383 115.171852 26.8419753 113.019012 26.8419753 113.019012 28.1 115.02321 28.1 115.02321 28.6367901 113.019012 28.6367901 113.019012 29.9908642 115.279753 29.9908642 115.279753 30.5279012 112.44642 30.5279012 112.44642 26.3049383"></polyline>
                        <polyline fill="#0A0B09" points="116.384938 26.3049383 119.111111 26.3049383 119.111111 26.8419753 116.958272 26.8419753 116.958272 28.1 118.961728 28.1 118.961728 28.6367901 116.958272 28.6367901 116.958272 29.9908642 119.218519 29.9908642 119.218519 30.5279012 116.384938 30.5279012 116.384938 26.3049383"></polyline>
                        <path d="M120.89679,28.165679 L121.648642,28.165679 C122.101481,28.165679 122.554321,28.0582716 122.554321,27.485679 C122.554321,26.9130864 122.101481,26.8064198 121.648642,26.8064198 L120.89679,26.8064198 L120.89679,28.165679 Z M120.324198,26.3049383 L121.80963,26.3049383 C122.888889,26.3049383 123.16321,26.9548148 123.16321,27.485679 C123.16321,28.022716 122.763704,28.5296296 122.125432,28.6014815 L123.323704,30.5279012 L122.608395,30.5279012 L121.535062,28.6669136 L120.89679,28.6669136 L120.89679,30.5279012 L120.324198,30.5279012 L120.324198,26.3049383 L120.324198,26.3049383 Z" fill="#0A0B09"></path>
                        <polygon fill="#0A0B09" points="124.263457 30.5279012 124.835556 30.5279012 124.835556 26.3049383 124.263457 26.3049383"></polygon>
                        <polyline fill="#0A0B09" points="126.217778 26.3049383 126.96963 26.3049383 129.295556 29.7760494 129.30716 29.7760494 129.30716 26.3049383 129.879753 26.3049383 129.879753 30.5279012 129.151852 30.5279012 126.802716 27.0567901 126.79037 27.0567901 126.79037 30.5279012 126.217778 30.5279012 126.217778 26.3049383"></polyline>
                        <path d="M134.856049,28.165679 L134.856049,30.2471605 C134.444198,30.4975309 133.77037,30.6353086 133.257284,30.6353086 C131.825432,30.6353086 130.997284,29.6153086 130.997284,28.4167901 C130.997284,27.1641975 131.90963,26.1975309 133.197778,26.1975309 C133.97358,26.1975309 134.444198,26.4061728 134.77284,26.7461728 L134.366914,27.1819753 C134.020741,26.8481481 133.621481,26.7345679 133.197778,26.7345679 C132.231852,26.7345679 131.604938,27.4918519 131.604938,28.4167901 C131.604938,29.3711111 132.315309,30.0980247 133.245679,30.0980247 C133.645185,30.0980247 134.026914,30.0209877 134.283457,29.8780247 L134.283457,28.7024691 L133.346914,28.7024691 L133.346914,28.165679 L134.856049,28.165679" fill="#0A0B09"></path>
                        <polygon fill="#8A8D8B" points="143.859753 37.7765432 144.748889 37.7765432 144.748889 2.22148148 143.859753 2.22148148"></polygon>
                        <path d="M161.952346,31.8446914 L162.857531,31.8446914 C164.742963,31.8446914 165.158025,31.1279012 165.158025,29.1669136 L165.158025,23.2081481 L157.917037,10.2345679 C156.446173,7.59481481 155.956049,7.25530864 154.107901,7.25530864 L153.768395,7.25530864 L153.768395,6.12395062 C155.39037,6.1617284 156.974074,6.23703704 158.520247,6.23703704 C160.104198,6.23703704 161.726173,6.1617284 163.310123,6.12395062 L163.310123,7.25530864 L162.631111,7.25530864 C161.839259,7.25530864 161.235556,7.51925926 161.235556,8.46197531 C161.235556,8.99012346 161.688148,10.0083951 162.065432,10.6871605 L167.646914,20.7567901 L172.851358,10.8004938 C173.153086,10.2345679 173.86963,8.80148148 173.86963,8.12271605 C173.86963,7.4817284 173.417037,7.25530864 172.399012,7.25530864 L171.682469,7.25530864 L171.682469,6.12395062 C173.228642,6.1617284 174.246914,6.23703704 175.415802,6.23703704 C176.660494,6.23703704 177.942716,6.1617284 179.14963,6.12395062 L179.14963,7.25530864 L178.206914,7.25530864 C176.660741,7.25530864 176.321235,7.74567901 175.152099,9.93283951 L168.47679,22.4160494 L168.47679,29.1669136 C168.47679,31.3920988 169.30642,31.8446914 170.777284,31.8446914 L171.531605,31.8446914 L171.531605,32.9762963 C169.947654,32.9382716 168.325679,32.862963 166.741975,32.862963 C165.082222,32.862963 163.347407,32.9382716 161.952346,32.9762963 L161.952346,31.8446914" fill="#0A0B09"></path>
                        <path d="M195.743704,7.21753086 C190.463704,7.21753086 185.485432,10.4609877 185.485432,19.2106173 C185.485432,25.3202469 189.483457,32.0333333 195.969877,32.0333333 C202.946914,32.0333333 206.152593,26.9041975 206.152593,19.9646914 C206.152593,13.8928395 202.343704,7.21753086 195.743704,7.21753086 Z M195.85679,5.63358025 C203.361975,5.63358025 209.924198,11.7054321 209.924198,19.5501235 C209.924198,26.1874074 204.794815,33.4664198 195.743704,33.4664198 C187.597531,33.4664198 181.714321,27.3187654 181.714321,19.8516049 C181.714321,11.4414815 188.42716,5.63358025 195.85679,5.63358025 L195.85679,5.63358025 Z" fill="#0A0B09"></path>
                        <path d="M222.331852,19.0217284 C222.973086,19.2481481 223.915802,19.2859259 224.896543,19.2859259 C228.290617,19.2859259 231.081481,17.7397531 231.081481,13.8175309 C231.081481,12.1580247 229.950123,7.55703704 224.707901,7.55703704 C223.802716,7.55703704 223.086173,7.63234568 222.331852,7.70790123 L222.331852,19.0217284 Z M215.844938,31.8446914 L216.523704,31.8446914 C218.258765,31.8446914 219.013086,31.2032099 219.013086,28.7520988 L219.013086,10.3476543 C219.013086,7.8962963 218.258765,7.25530864 216.523704,7.25530864 L215.844938,7.25530864 L215.844938,6.12395062 C217.165185,6.1617284 218.975309,6.23703704 220.672346,6.23703704 C223.199259,6.23703704 225.00963,6.12395062 226.668889,6.12395062 C233.344198,6.12395062 234.551111,11.3661728 234.551111,13.1007407 C234.551111,18.0414815 231.081481,19.5501235 229.195802,20.1533333 L234.249136,28.5259259 C236.323704,31.92 236.926914,32.1461728 239.981728,32.3345679 L239.981728,33.1269136 C239.265432,33.1269136 238.58642,33.1641975 237.870123,33.1641975 C234.551111,33.1641975 233.004691,32.7496296 231.005926,29.468642 L226.59358,22.2651852 C225.726173,20.8698765 225.236049,20.7945679 222.331852,20.7190123 L222.331852,27.8469136 C222.331852,31.4296296 222.973086,31.8446914 224.481481,31.8446914 L225.575309,31.8446914 L225.575309,32.9762963 C223.915802,32.9382716 222.331852,32.862963 220.672346,32.862963 C218.975309,32.862963 217.165185,32.9382716 215.844938,32.9762963 L215.844938,31.8446914 L215.844938,31.8446914 Z" fill="#0A0B09"></path>
                        <path d="M245.865185,31.8446914 L246.543951,31.8446914 C248.279012,31.8446914 249.034568,31.2032099 249.034568,28.7520988 L249.034568,10.3476543 C249.034568,7.8962963 248.279012,7.25530864 246.543951,7.25530864 L245.865185,7.25530864 L245.865185,6.12395062 C247.185185,6.1617284 248.995062,6.23703704 250.691358,6.23703704 C252.350617,6.23703704 253.935802,6.1617284 255.595062,6.12395062 L255.595062,7.25530864 L254.501235,7.25530864 C252.992593,7.25530864 252.353086,7.67012346 252.353086,11.2530864 L252.353086,20.1158025 L260.612346,10.9135802 C260.987654,10.4987654 262.422222,8.99012346 262.422222,8.23580247 C262.422222,7.55703704 261.893827,7.25530864 261.177778,7.25530864 L260.498765,7.25530864 L260.498765,6.12395062 C261.893827,6.1617284 263.476543,6.23703704 264.948148,6.23703704 C266.45679,6.23703704 267.925926,6.1617284 269.437037,6.12395062 L269.437037,7.25530864 L268.758025,7.25530864 C266.908642,7.25530864 266.269136,7.59481481 264.041975,9.93283951 L256.765432,17.5888889 L266.493827,28.9782716 C268.607407,31.4674074 269.701235,31.8446914 271.246914,31.8446914 L271.812346,31.8446914 L271.812346,32.9762963 C270.604938,32.9382716 269.360494,32.862963 268.153086,32.862963 C266.948148,32.862963 265.701235,32.9382716 264.496296,32.9762963 C264.308642,31.8824691 264.195062,31.3165432 262.044444,28.8651852 L254.31358,20.0024691 L252.353086,22.0767901 L252.353086,27.8469136 C252.353086,31.4296296 252.992593,31.8446914 254.501235,31.8446914 L255.595062,31.8446914 L255.595062,32.9762963 C253.935802,32.9382716 252.350617,32.862963 250.691358,32.862963 C248.995062,32.862963 247.185185,32.9382716 245.865185,32.9762963 L245.865185,31.8446914" fill="#0A0B09"></path>
                        <path d="M304.279012,33.477284 C298.246914,33.477284 293.024691,29.748642 293.024691,21.5982716 L293.024691,2.22222222 L279.548148,2.22222222 L279.548148,37.777037 L315.103704,37.777037 L315.103704,24.8044444 C314.034568,29.9740741 310.276543,33.477284 304.279012,33.477284" fill="#CF233A"></path>
                        <path d="M304.279012,26.1982716 C307.51358,26.1982716 308.508642,23.3550617 308.508642,20.5740741 L308.508642,2.22222222 L300.232099,2.22222222 L300.232099,20.5740741 C300.232099,23.4706173 301.261728,26.1982716 304.279012,26.1982716" fill="#CF233A"></path>
                    </g>
                </g>
            </g>
        </g>
    </g>
</svg>
